<?xml version="1.0" standalone="no"?><!DOCTYPE svg PUBLIC "-//W3C//DTD SVG 1.1//EN" "http://www.w3.org/Graphics/SVG/1.1/DTD/svg11.dtd"><svg t="1722408296777" class="icon" viewBox="0 0 1041 1024" version="1.1" xmlns="http://www.w3.org/2000/svg" p-id="8536" xmlns:xlink="http://www.w3.org/1999/xlink" width="65.0625" height="64"><path d="M560.97234 0C510.040624 0 5.208926 200.881248 90.191581 623.238293c14.252199 70.790745 38.825787 125.906482 69.223244 169.012752l124.447501-61.433971L560.97234 883.829261l-111.77486 55.176026c64.73778 3.219405 111.77486-6.764369 111.77486-6.764369s391.778722 83.475443 470.768702-309.038798C1116.723697 200.881248 611.952287 0 560.97234 0z m121.891269 598.483839a26.985128 26.985128 0 1 1 19.364663-32.881343 26.997186 26.997186 0 0 1-19.364663 32.881343zM737.991404 479.896379a26.985128 26.985128 0 1 1 32.881343 19.364663A26.985128 26.985128 0 0 1 737.991404 479.896379z m65.328608 156.24365a26.97307 26.97307 0 1 1 19.364663-32.869284 26.97307 26.97307 0 0 1-19.364663 32.917515z" fill="#FF8899" p-id="8537"></path><path d="M283.355902 751.194583l-112.956514 55.754796c69.307648 87.623291 164.804616 119.588248 244.047807 129.174118L522.098322 882.973165z" fill="#FF8899" p-id="8538"></path><path d="M283.862326 730.817074l-124.447501 61.433971L0 870.95164l277.110015 153.04836 172.087465-84.95854 111.77486-55.212199z m-6.282061 272.865705l-238.74242-131.83887 131.5736-64.954819L283.355902 751.194583l238.74242 131.778582-107.651127 53.150332z" fill="#8CBE46" p-id="8539"></path><path d="M669.34693 546.213718a26.985128 26.985128 0 1 0 32.881342 19.364663A26.997186 26.997186 0 0 0 669.34693 546.213718zM789.779217 583.954313a26.97307 26.97307 0 1 0 32.881342 19.364663A26.97307 26.97307 0 0 0 789.779217 583.954313zM790.237409 466.439988a26.985128 26.985128 0 1 0-19.364662 32.869285 26.97307 26.97307 0 0 0 19.364662-32.869285z" fill="#FFFFFF" p-id="8540"></path></svg>