<?xml version="1.0" standalone="no"?><!DOCTYPE svg PUBLIC "-//W3C//DTD SVG 1.1//EN" "http://www.w3.org/Graphics/SVG/1.1/DTD/svg11.dtd"><svg t="1722408285146" class="icon" viewBox="0 0 1024 1024" version="1.1" xmlns="http://www.w3.org/2000/svg" p-id="7220" xmlns:xlink="http://www.w3.org/1999/xlink" width="64" height="64"><path d="M465.8 167.5c-3.2 26.1-1 78.6 27.2 114.9 37.2 47.8 137.5 63.7 209.3 30 107-50.2 173-182.3 173-182.3S739.9 9.5 612.8 22.1c-112 11-143.2 114-147 145.4z" fill="#FFFFFF" p-id="7221"></path><path d="M482.5 138.3c-9.2 28.1 6.2 85.2 33.3 123.4 35.7 50.3 115.4 75.9 188.6 37.4C818.8 239 860.8 132.3 860.8 132.3S742 21.8 630.6 31.3c-106 9-133.3 61.7-148.1 107z" fill="#E4EADC" p-id="7222"></path><path d="M617.8 350.8c-11.7 0-23.5-0.8-35.1-2.6-45.4-6.7-83.5-26.1-104.5-53.1-30-38.6-35.6-93.9-31.3-129.6 2.6-21.5 13.7-57.8 36.5-89.6C514 33.3 558.4 8 611.7 2.7c56.9-5.6 121.2 11.8 190.9 51.8 51 29.2 85.5 59.8 87 61.1l11.4 10.2-6.8 13.7c-2.8 5.6-70.4 138.9-182.4 191.5-27.7 13-60.7 19.8-94 19.8z m14.9-309.1c-5.7 0-11.3 0.3-17 0.8-42.1 4.2-75.7 23.3-99.8 56.8-19.7 27.4-27.7 57.6-29.3 71.1-2.7 22.6-1 69.2 23.1 100.2 14.5 18.7 44 32.9 78.8 38.1 37 5.5 75.7 0.4 106.2-13.9 79.6-37.3 136.3-125.2 156-159.3-32.9-26.1-127.2-93.8-218-93.8z" fill="#424649" p-id="7223"></path><path d="M472 232.3c-5.9 0-11.7-2.6-15.7-7.6-6.9-8.6-5.5-21.2 3.2-28.1 2.4-1.9 60.2-47.4 149.5-63.3 58.2-10.4 133.7-4.3 136.9-4 11 0.9 19.2 10.6 18.3 21.6-0.9 11-10.6 19.2-21.6 18.3-0.7-0.1-73.5-5.9-126.6 3.5-78.9 14-131.1 54.8-131.6 55.2-3.7 3-8.1 4.4-12.4 4.4z" fill="#424649" p-id="7224"></path><path d="M720.4 456.2c10.3-27 15.9-56.3 15.9-86.9 0-135.2-109.6-244.7-244.7-244.7-135.2 0-244.7 109.6-244.7 244.7 0 18.3 2 36.1 5.8 53.3-68.9 60.4-112.4 149.1-112.4 247.9 0 182.1 147.6 329.7 329.7 329.7s329.7-147.6 329.7-329.7c-0.1-81.8-29.9-156.6-79.3-214.3z" fill="#FFFFFF" p-id="7225"></path><path d="M725.3 449.3c10.3-27 15.9-56.3 15.9-86.9 0-135.2-108.9-218.2-162.9-223.4C443.7 126.1 340 241.8 340 376.9c0 18.3 2 36.1 5.8 53.3-68.9 60.4-112.4 149.1-112.4 247.9 0 182.1 131 318.2 312.9 312.4 119.3-3.8 256.9-100.1 256.9-282.1 0.1-81.8-28.5-201.4-77.9-259.1z" fill="#FFB808" p-id="7226"></path><path d="M470 1021.2c-47.2 0-93-9.2-136.1-27.5-41.6-17.6-79-42.8-111.1-74.9-32.1-32.1-57.3-69.5-74.9-111.1-18.2-43.1-27.5-88.9-27.5-136.1 0-96.8 40.2-189.1 110.6-255.1-2.7-15.2-4-30.6-4-46.1 0-70.7 27.5-137.2 77.5-187.2s116.5-77.5 187.2-77.5c70.7 0 137.2 27.5 187.2 77.5s77.5 116.5 77.5 187.2c0 28.4-4.5 56.2-13.2 82.9 49.5 61.8 76.6 138.9 76.6 218.3 0 47.2-9.2 93-27.5 136.1-17.6 41.6-42.8 79-74.9 111.1-32.1 32.1-69.5 57.3-111.1 74.9-43.4 18.3-89.1 27.5-136.3 27.5z m21.6-875.5c-60 0-116.5 23.4-158.9 65.8-42.4 42.4-65.8 98.9-65.8 158.9 0 16.5 1.8 32.9 5.4 49 1.6 7.1-0.8 14.6-6.3 19.4-67.1 58.9-105.6 143.7-105.6 232.9 0 82.7 32.2 160.5 90.7 219s136.2 90.7 219 90.7c82.7 0 160.5-32.2 219-90.7s90.7-136.2 90.7-219c0-73.8-26.4-145.3-74.4-201.3-4.8-5.6-6.1-13.3-3.5-20.1 9.7-25.5 14.6-52.3 14.6-79.8 0-60-23.4-116.5-65.8-158.9s-99.1-65.9-159.1-65.9z" fill="#424649" p-id="7227"></path><path d="M716.8 696.1h-0.5c-11-0.2-19.8-9.4-19.6-20.4 0-1.7 0.1-3.5 0.1-5.2 0-11 9-20 20-20s20 9 20 20c0 2 0 4.1-0.1 6.1-0.1 10.9-9 19.5-19.9 19.5z" fill="#424649" p-id="7228"></path><path d="M716.7 701h-0.8c-11-0.5-19.6-9.8-19.2-20.8 0.1-1.5 0.1-3 0.1-4.5 0.2-11 9.4-19.8 20.4-19.6 11 0.2 19.8 9.4 19.6 20.4 0 1.8-0.1 3.5-0.2 5.2-0.4 10.9-9.3 19.3-19.9 19.3zM465.3 942c-11 0-20-9-20-20s9-20 20-20c48.3 0 94.5-14.7 133.8-42.5 38.4-27.2 67.3-64.8 83.5-108.8 3.8-10.4 15.3-15.7 25.7-11.8 10.4 3.8 15.7 15.3 11.8 25.7-19 51.5-52.9 95.7-97.9 127.6-46 32.5-100.3 49.8-156.9 49.8z" fill="#424649" p-id="7229"></path><path d="M442 92.5c23.1 10.9 65.4 40 81.2 83 20.8 56.7-16.5 150.6-80.5 194.4-95.3 65.3-237.7 53-237.7 53s-31.4-178.4 42.9-280.4c65.4-90 166.2-63.1 194.1-50z" fill="#FFFFFF" p-id="7230"></path><path d="M439.5 96.4c24.6 6.8 61 33 76.8 76 20.8 56.7-9.8 145.4-70.3 187.9-94.6 66.4-188.6 56.3-188.6 56.3s-27.8-158.9 28.5-249.1C339.5 81.6 400 85.4 439.5 96.4z" fill="#E4EADC" p-id="7231"></path><path d="M233.8 444.9c-17.6 0-28.9-0.9-30.5-1.1l-15.3-1.3-2.7-15.1c-0.3-1.9-8.2-47.2-6.7-105.9 2-80.2 19.9-144.1 53.1-189.8 31.3-43 74.8-67.8 125.8-71.7 38-3 73.8 6.5 93 15.5 31.7 14.9 74.7 48.5 91.5 94.2 11.7 31.9 8.5 74.3-8.7 116.5-17 41.5-45.8 78.4-79.2 101.3-73.7 50.3-171.4 57.4-220.3 57.4z m-11.3-40.2c38.4 0.8 138.6-2.1 208.9-50.3 27.1-18.6 50.7-49 64.8-83.4 13.3-32.6 16.4-65.3 8.2-87.6-13.5-36.7-50.9-62.4-71-71.8-11.9-5.6-40.6-14.3-72.9-11.8-39.5 3.1-72 21.7-96.5 55.4-56.1 77.2-46.8 205-41.5 249.5z" fill="#424649" p-id="7232"></path><path d="M287 340.8c-2.9 0-5.9-0.6-8.7-2-9.9-4.8-14.1-16.8-9.3-26.7 1.4-2.9 34.3-70.5 72.1-114.8 58.1-68.1 125-93.9 127.8-95 10.3-3.9 21.9 1.3 25.8 11.6 3.9 10.3-1.3 21.9-11.6 25.8-1.1 0.4-60.6 23.9-111.6 83.6-34.5 40.5-66.2 105.6-66.5 106.3-3.5 7.1-10.6 11.2-18 11.2z" fill="#424649" p-id="7233"></path></svg>