<?xml version="1.0" standalone="no"?><!DOCTYPE svg PUBLIC "-//W3C//DTD SVG 1.1//EN" "http://www.w3.org/Graphics/SVG/1.1/DTD/svg11.dtd"><svg t="1722408273340" class="icon" viewBox="0 0 1024 1024" version="1.1" xmlns="http://www.w3.org/2000/svg" p-id="5825" xmlns:xlink="http://www.w3.org/1999/xlink" width="64" height="64"><path d="M498.14528 157.12256c-58.36288 58.368-86.0672 135.7568-83.2 212.20864 76.4672 2.87232 153.84576-24.82176 212.21888-83.18976 58.36288-58.36288 86.0672-135.7568 83.18976-212.21888-76.44672-2.86208-153.84576 24.83712-212.20864 83.2z" fill="#639635" p-id="5826"></path><path d="M515.96288 157.12256c58.36288 58.368 86.06208 135.7568 83.2 212.20864-76.47232 2.87232-153.84576-24.82176-212.21376-83.18976-58.368-58.36288-86.07232-135.7568-83.18976-212.21888 76.44672-2.86208 153.84064 24.83712 212.20352 83.2z" fill="#639635" p-id="5827"></path><path d="M415.82592 221.63456c0 82.54464 35.13344 156.84608 91.22304 208.88576 56.09984-52.03968 91.23328-126.34112 91.23328-208.88576 0-82.54464-35.13344-156.8512-91.23328-208.88576-56.0896 52.03456-91.22304 126.34112-91.22304 208.88576z" fill="#84B857" p-id="5828"></path><path d="M827.25376 687.89248c0 176.83968-143.36512 320.19968-320.19968 320.19968-176.83968 0-320.19968-143.36-320.19968-320.19968v-112.64c0-176.83968 143.36-320.19968 320.19968-320.19968 176.83456 0 320.19968 143.36 320.19968 320.19968v112.64z" fill="#F5CD1F" p-id="5829"></path><path d="M824.85248 726.49728c1.52576-12.66688 2.40128-25.52832 2.40128-38.6048v-19.072l-30.35136 30.34624-61.50144-61.50144 61.49632-61.50144 30.35648 30.35648v-31.26784c0-8.44288-0.43008-16.7936-1.07008-25.08288l-1.64352-1.6384 1.408-1.408a317.568 317.568 0 0 0-7.77216-47.5136l-21.27872 21.27872-61.50144-61.50144 47.20128-47.20128a320.01024 320.01024 0 0 0-22.4-32.88576l-52.44416 52.44416-61.50656-61.50144 51.91168-51.90656a320.01536 320.01536 0 0 0-33.5104-21.77024l-46.03904 46.03904L557.11232 281.088l18.5856-18.58048a321.15712 321.15712 0 0 0-68.63872-7.45472c-10.06592 0-20.00384 0.52736-29.824 1.4336l24.6016 24.60672-61.50656 61.50144-60.98432-60.98944a321.25952 321.25952 0 0 0-165.08928 164.05504l47.77472-47.77984L323.5328 459.38176l-61.4912 61.49632-55.75168-55.74144a316.8768 316.8768 0 0 0-12.31872 42.96192l40.4224 40.42752-47.53408 47.5392v83.21024l47.53408 47.5392-38.13888 38.13888a317.63456 317.63456 0 0 0 13.49632 41.79456l52.29568-52.29568 61.50144 61.50656-61.50656 61.50144-35.98848-35.98336a321.36704 321.36704 0 0 0 161.90464 143.63648L440.32 932.74624l61.50144 61.50144-13.27104 13.27616c6.12352 0.34304 12.288 0.56832 18.50368 0.56832a321.2288 321.2288 0 0 0 58.4704-5.4272l-8.4224-8.4224 61.50656-61.50144 38.17984 38.17472a319.95904 319.95904 0 0 0 34.24256-21.03296l-44.77952-44.77952 61.50144-61.50144 47.0784 47.0784a321.40288 321.40288 0 0 0 23.12192-32.15872l-42.55744-42.56256 61.50656-61.5168 18.76992 18.76992a319.0528 319.0528 0 0 0 9.1136-46.17728l-0.24064-0.24064 0.3072-0.29696z m-117.0944-239.47776l61.50144 61.50144-61.50144 61.50144-61.50144-61.50144 61.50144-61.50144z m-205.93664 150.656L440.32 699.17184l-61.50144-61.50144L440.32 576.17408l61.50144 61.50144z m-33.86368-89.14432l61.51168-61.51168 61.50656 61.50144-61.5168 61.51168-61.50144-61.50144z m61.50144 116.78208l61.50144 61.50144-61.49632 61.50656-61.50144-61.51168 61.49632-61.49632z m27.64288-27.64288l61.51168-61.50656 61.50656 61.50144-61.51168 61.5168-61.50656-61.51168z m123.01312-178.29376l-61.49632 61.49632-61.51168-61.50144 61.50144-61.50144 61.50656 61.50656z m-150.65088-150.64576l61.5168 61.50656-61.50144 61.49632L467.968 370.23232l61.49632-61.50144z m-27.63264 150.64576L440.32 520.88832 378.81856 459.38176 440.33024 397.8752l61.50144 61.50144zM289.66912 370.24256l61.5168-61.51168 61.50144 61.50656-61.5168 61.50656-61.50144-61.50144z m61.50144 116.7872l61.50656 61.50656-61.49632 61.4912-61.51168-61.50656 61.50144-61.4912z m-150.64064 150.64064l61.50144-61.50656 61.51168 61.50656-61.50144 61.50144-61.51168-61.50144z m89.1392 89.1392l61.51168-61.50144 61.50144 61.50144-61.50144 61.51168-61.51168-61.51168zM351.1808 966.6048l-61.51168-61.50656 61.50144-61.50144 61.51168 61.50656L351.1808 966.6048z m27.63776-150.64576L440.32 754.45248l61.50144 61.51168L440.32 877.46048l-61.50144-61.50144z m150.64576 150.64576l-61.50144-61.50144 61.50144-61.50656 61.50144 61.50656-61.50144 61.50144z m89.1392-89.14432l-61.50144-61.50144 61.50144-61.50144 61.50656 61.50656-61.50656 61.49632z m89.14432-89.1392l-61.50656-61.50656 61.5168-61.50656 61.50144 61.50144-61.51168 61.51168z" fill="#F49B17" p-id="5830"></path></svg>