<?xml version="1.0" standalone="no"?><!DOCTYPE svg PUBLIC "-//W3C//DTD SVG 1.1//EN" "http://www.w3.org/Graphics/SVG/1.1/DTD/svg11.dtd"><svg t="1722408258173" class="icon" viewBox="0 0 1053 1024" version="1.1" xmlns="http://www.w3.org/2000/svg" p-id="4141" xmlns:xlink="http://www.w3.org/1999/xlink" width="65.8125" height="64"><path d="M769.436114 739.360435A548.045701 548.045701 0 0 1 3.341742 647.04481l26.733937-54.303309a548.045701 548.045701 0 0 0 783.220799-397.249589 73.936043 73.936043 0 0 1 10.442944-25.063066l144.530345 17.961864c0 5.012613 2.088589 10.442944 2.924025 15.873275a547.627983 547.627983 0 0 1-201.757678 535.09645z" fill="#FFBD14" p-id="4142"></path><path d="M971.193792 223.479002a80.20181 80.20181 0 0 1-159.568185-20.050453 68.92343 68.92343 0 0 1 0-7.936637 73.936043 73.936043 0 0 1 10.442944-25.063066 79.784092 79.784092 0 0 1 77.695504-36.759163 80.619528 80.619528 0 0 1 66.417124 54.721027c0 5.012613 2.088589 10.442944 2.924024 15.873275a93.986496 93.986496 0 0 1 2.088589 19.215017z" fill="#FFBD14" p-id="4143"></path><path d="M968.269767 189.643863L936.523218 7.51892 888.485675 0l-26.733936 19.215017 0.417717 135.758272 106.100311 34.670574z" fill="#FFBD14" p-id="4144"></path><path d="M873.030118 843.372157a617.804567 617.804567 0 0 1-869.688376 3.341742l22.556759-64.328535A617.386849 617.386849 0 0 0 846.296181 228.909332a83.543552 83.543552 0 0 1 8.354356-29.240243h163.745362c2.088589 5.430331 3.75946 11.696097 5.43033 17.126428v2.088589a617.386849 617.386849 0 0 1-150.796111 624.488051z" fill="#FFCF14" p-id="4145"></path><path d="M1026.750254 237.681405a90.644754 90.644754 0 0 1-180.87179 0 81.037245 81.037245 0 0 1 0-9.18979 83.543552 83.543552 0 0 1 8.354355-29.240244 90.644754 90.644754 0 0 1 163.745362 0c2.088589 5.430331 3.75946 11.696097 5.430331 17.126429v2.088588a101.087698 101.087698 0 0 1 3.341742 19.215017z" fill="#FFCF14" p-id="4146"></path><path d="M1018.813616 200.504525L964.09259 10.442944 903.941232 3.75946l-28.404807 20.885888 19.632734 151.631547 123.644457 24.22763z" fill="#FFCF14" p-id="4147"></path><path d="M873.030118 843.372157a617.804567 617.804567 0 0 1-869.688376 3.341742l2.506307-7.936637a630.3361 630.3361 0 0 0 824.992575-54.303309 622.81718 622.81718 0 0 0 154.973289-630.753817c0-5.430331-3.341742-11.696097-5.430331-17.126429l-36.759162-125.315327 21.303605 2.506306 54.721027 189.643863c0 5.430331 3.75946 11.696097 5.430331 17.126428v2.088589a617.386849 617.386849 0 0 1-152.049265 620.728591z" fill="#FFE070" p-id="4148"></path><path d="M3.75946 846.713899l31.74655-26.733936-9.607509-37.594599-25.898501 21.721324 3.75946 42.607211zM3.75946 647.04481l31.74655-22.139041-5.012614-32.164268-26.733936 14.620122v39.683187z" fill="#4D4D4D" p-id="4149"></path></svg>